<?xml version="1.0" encoding="UTF-8" standalone="no"?>
<svg
   id="Layer_1"
   data-name="Layer 1"
   version="1.1"
   viewBox="0 0 47.999999 48.000002"
   sodipodi:docname="campster_logo_icon.svg"
   width="48"
   height="48"
   inkscape:version="1.3.2 (091e20e, 2023-11-25, custom)"
   xmlns:inkscape="http://www.inkscape.org/namespaces/inkscape"
   xmlns:sodipodi="http://sodipodi.sourceforge.net/DTD/sodipodi-0.dtd"
   xmlns="http://www.w3.org/2000/svg"
   xmlns:svg="http://www.w3.org/2000/svg">
  <sodipodi:namedview
     id="namedview11"
     pagecolor="#ffffff"
     bordercolor="#000000"
     borderopacity="0.25"
     inkscape:showpageshadow="2"
     inkscape:pageopacity="0.0"
     inkscape:pagecheckerboard="0"
     inkscape:deskcolor="#d1d1d1"
     inkscape:zoom="10.96594"
     inkscape:cx="43.543919"
     inkscape:cy="19.195801"
     inkscape:window-width="2560"
     inkscape:window-height="1369"
     inkscape:window-x="2552"
     inkscape:window-y="-8"
     inkscape:window-maximized="1"
     inkscape:current-layer="Layer_1" />
  <defs
     id="defs1">
    <style
       id="style1">
      .cls-1 {
        fill: #f08939;
      }

      .cls-1, .cls-2 {
        stroke-width: 0px;
      }

      .cls-2 {
        fill: #08384e;
      }
    </style>
  </defs>
  <g
     id="g11"
     transform="matrix(0.11293986,0,0,0.11293986,-10.02878,-2.2528705)">
    <path
       class="cls-1"
       d="m 498,369.1 h -41.2 c -25.8,0 -50.9,-8.2 -71.5,-23.6 -43.5,-32.5 -73.9,-81.5 -82,-137.8 -1.4,-12 -2.1,-24.7 -2.1,-37.9 V 369.1 H 104.4 L 280.6,143.4 243.4,95.7 h 41.2 L 301.2,117 317.8,95.7 H 359 l -37.2,47.7 z"
       id="path10" />
    <path
       class="cls-2"
       d="m 505.2,372.6 h -48.4 c -26.5,0 -52.6,-8.6 -73.6,-24.3 C 360.9,331.6 342.3,311.1 328,287.3 317.6,270 309.8,251.5 304.7,232.1 V 372.6 H 97.2 l 179,-229.2 -39.9,-51.1 h 50.1 l 14.9,19.1 14.9,-19.1 h 50.1 l -39.9,51.1 179,229.2 z M 306.8,207.2 c 3.9,27.2 13.1,52.9 27.2,76.4 13.9,23 31.8,42.9 53.4,59 19.8,14.8 44.4,22.9 69.4,22.9 h 34 L 317.3,143.3 351.8,99.2 h -32.3 l -18.3,23.5 -18.3,-23.5 h -32.3 l 34.5,44.1 -173.5,222.2 H 297.7 V 169.7 h 7 c 0,12.5 0.7,25.1 2.1,37.4 z"
       id="path11" />
  </g>
</svg>
